<?xml version="1.0" encoding="UTF-8"?>
<svg version="1.1" xmlns="http://www.w3.org/2000/svg" width="1354" height="1344">
<path d="M0 0 C3.25223976 1.28734894 5.35001119 3.59593259 7.75722885 6.0481205 C8.30219804 6.59123198 8.84716723 7.13434346 9.40865064 7.69391286 C11.2365795 9.51923801 13.05356293 11.35508415 14.87081528 13.19103432 C16.17795348 14.50065545 17.48576017 15.80960966 18.79418564 17.11794472 C21.61306607 19.93953355 24.42711531 22.76582493 27.23753738 25.59583855 C31.6853542 30.07465473 36.14349798 34.54309456 40.60305405 39.01021767 C47.66114196 46.08280842 54.71197771 53.16258048 61.75989461 60.24530542 C74.36509057 72.91230765 86.98232086 85.56731703 99.60244298 98.21944654 C104.02889189 102.65769553 108.4521369 107.09910601 112.87269926 111.5432179 C115.6314268 114.31583451 118.39219181 117.08641612 121.15340424 119.85655785 C122.42810729 121.13630367 123.70192748 122.41692963 124.97476959 123.69852638 C133.60555732 132.39955476 133.60555732 132.39955476 142.71737671 140.59094238 C157.5064624 153.16347548 166.45886995 172.93607218 169.24288559 191.88781166 C170.32703977 205.55508719 169.92610379 218.9336467 165.24288559 231.88781166 C164.82265121 233.12788979 164.40241684 234.36796791 163.96944809 235.64562416 C158.44660427 249.73889143 146.0679692 259.78886885 135.24288559 269.88781166 C138.73288529 274.04813071 142.2865382 278.03243924 146.18038559 281.82531166 C147.86914916 283.51154714 149.55672861 285.19896971 151.24288559 286.88781166 C152.20968246 287.84107338 152.20968246 287.84107338 153.19601059 288.81359291 C166.43668138 302.74015431 169.90738351 321.83957047 169.71139145 340.3646183 C168.81069418 368.65780069 154.68306879 388.96920441 135.18038559 408.27843666 C133.82034268 409.63541335 132.46089732 410.99298917 131.10201645 412.35112953 C128.26908146 415.17949147 125.4313499 418.00291222 122.58956528 420.82238197 C118.96508917 424.41852434 115.34939271 428.02333336 111.73682785 431.6314373 C108.26282507 435.1002626 104.78416867 438.56440665 101.30538559 442.02843666 C100.65230423 442.6796373 99.99922287 443.33083794 99.32635117 444.00177193 C97.45863677 445.86253664 95.587604 447.7198989 93.71554184 449.57628822 C93.17712662 450.11358559 92.6387114 450.65088295 92.08398056 451.20446205 C89.2547189 454.00272185 86.36112403 456.67901013 83.34835434 459.27936745 C79.07334095 462.98586105 75.07217266 466.92479605 71.08272934 470.93444252 C69.92517891 472.09177391 69.92517891 472.09177391 68.74424362 473.27248573 C66.22057702 475.79684319 63.70046064 478.32471293 61.18038559 480.85265541 C59.42083901 482.61406911 57.66106999 484.37526064 55.90108871 486.13624001 C51.28922921 490.75190154 46.68038184 495.37055925 42.07217026 499.98986244 C37.36164526 504.7111988 32.64770872 509.42912829 27.93429184 514.14757729 C18.70102991 523.39153568 9.47085215 532.63856721 0.24288559 541.88781166 C-7.11073348 535.65872415 -7.11073348 535.65872415 -10.47000504 532.30431557 C-11.10756729 531.66990547 -11.74512955 531.03549538 -12.40201187 530.38186073 C-13.06575821 529.71609016 -13.72950455 529.0503196 -14.41336441 528.36437416 C-15.11932755 527.65936775 -15.82529068 526.95436134 -16.55264664 526.2279911 C-18.03625643 524.74505788 -19.51861994 523.26087684 -20.99979019 521.77550697 C-23.24721501 519.52273462 -25.4999167 517.27533929 -27.75320816 515.02843666 C-29.20274755 513.57823625 -30.65197658 512.12772554 -32.10086441 510.67687416 C-32.76461075 510.01515205 -33.42835709 509.35342995 -34.11221695 508.67165565 C-37.2146492 505.55388473 -40.21539448 502.40004446 -43.07938004 499.0611515 C-47.10021373 494.40889769 -51.43676456 490.09457581 -55.80228043 485.76748085 C-57.29425684 484.28849257 -58.78288994 482.80620664 -60.27078629 481.3231144 C-63.43006206 478.17515917 -66.59327464 475.03117896 -69.75711441 471.88781166 C-73.4290223 468.23966383 -77.09920998 464.58981822 -80.76517105 460.93569374 C-82.21809349 459.48916098 -83.67403722 458.04571999 -85.13016129 456.60241127 C-89.70329029 452.04610731 -94.14583534 447.45219933 -98.3207283 442.52625465 C-100.44125083 440.10743755 -102.82199646 437.99345436 -105.19461441 435.82531166 C-119.94223739 421.53712409 -125.63051863 398.86558252 -126.00711441 378.95031166 C-125.68444443 361.77288011 -122.90541809 344.65551898 -110.75711441 331.88781166 C-109.77594673 330.8180289 -108.79690816 329.74629084 -107.81961441 328.67296791 C-105.75183618 326.41058291 -103.67077071 324.16171047 -101.57742691 321.92296791 C-98.80932505 318.95662245 -96.12886796 315.92272652 -93.47195816 312.85656166 C-91.37847237 310.45310644 -89.25855299 308.07466015 -87.13211441 305.70031166 C-86.41797379 304.90238197 -85.70383316 304.10445229 -84.96805191 303.28234291 C-82.62856734 300.74859019 -80.20136477 298.32018692 -77.75711441 295.88781166 C-70.70390947 302.91776132 -63.65347114 309.95047297 -56.60647106 316.98664284 C-53.33355697 320.25435681 -50.05972703 323.52114171 -46.78372574 326.78576088 C-43.61734555 329.94120957 -40.4534737 333.09915395 -37.29126549 336.25878334 C-36.08940037 337.45881259 -34.88666117 338.65796713 -33.68300056 339.85619545 C-22.24810928 351.24156634 -22.24810928 351.24156634 -17.18582535 357.23424721 C-14.55893635 360.27456149 -11.68045341 363.06967175 -8.81961441 365.88781166 C-8.23115738 366.47175697 -7.64270035 367.05570229 -7.03641129 367.65734291 C-5.61231648 369.06985971 -4.18506192 370.47918976 -2.75711441 371.88781166 C-4.56555911 375.08527261 -6.33402133 377.68335719 -9.00711441 380.20031166 C-12.25784983 383.34773981 -15.23749248 386.65460847 -18.17898941 390.09093666 C-19.6459271 391.76121224 -21.16667734 393.33569838 -22.75711441 394.88781166 C-26.54012668 393.31837483 -28.92967988 390.95679889 -31.80105972 388.07091713 C-32.28932236 387.58294655 -32.77758499 387.09497597 -33.28064346 386.5922184 C-34.88696403 384.98450891 -36.48609154 383.36984065 -38.08523941 381.75499916 C-39.20009758 380.63640931 -40.31539928 379.51826137 -41.43112564 378.40053749 C-44.3618205 375.46221841 -47.28645863 372.51794211 -50.2098732 369.57238197 C-53.19594166 366.56582904 -56.187703 363.56495285 -59.17898941 360.56359291 C-65.04394897 354.6772048 -70.90252173 348.78451066 -76.75711441 342.88781166 C-86.08887553 348.98443613 -89.95923861 356.23304919 -93.34305191 366.70031166 C-95.47676425 377.9727542 -94.21465112 391.35283142 -89.75711441 401.88781166 C-85.15640179 407.89183131 -79.60230141 413.18145288 -74.25149918 418.50695229 C-73.43117706 419.32742043 -72.61085495 420.14788857 -71.76567459 420.99321938 C-69.07898922 423.6792133 -66.38878927 426.3616571 -63.69852066 429.04406166 C-61.82500542 430.91570998 -59.95168867 432.78755487 -58.07863235 434.65966225 C-53.6680442 439.06715643 -49.25491581 443.4720978 -44.84084314 447.87610197 C-39.81097108 452.89475245 -34.78397691 457.91628145 -29.75720894 462.93804073 C-19.42701788 473.25781127 -9.09326122 483.57400637 1.24288559 493.88781166 C7.8477942 488.44215449 13.87464828 482.44007618 19.94210434 476.41320229 C21.11387533 475.25262517 22.28580556 474.0922088 23.45788193 472.93194008 C27.2861026 469.14005561 31.10886765 465.34269986 34.93038559 461.54406166 C35.58296215 460.89543097 36.23553871 460.24680027 36.90789032 459.5785141 C43.07303191 453.44977205 49.23567854 447.31852896 55.39329147 441.18222237 C63.23776099 433.36530925 71.09361535 425.56023444 78.96528149 417.77070665 C84.51750174 412.27444971 90.05609044 406.76468365 95.58500385 401.2449832 C98.87907408 397.95714036 102.1786919 394.67537904 105.49322128 391.40815163 C108.61470752 388.33067104 111.71880353 385.23662015 114.81101227 382.12973213 C115.94041562 381.00065452 117.07569757 379.87741747 118.21760559 378.76098824 C129.21405713 367.99683216 137.28103624 355.60941456 137.62350082 339.69884682 C137.60234836 331.69953629 136.97916158 325.13663455 133.24288559 317.88781166 C132.79171371 317.01124916 132.34054184 316.13468666 131.87569809 315.23156166 C127.03829533 306.85635688 120.20869118 300.47652101 113.24288559 293.88781166 C108.27724637 298.05261829 103.59807336 302.38487797 99.02413559 306.97374916 C98.36256454 307.63436348 97.7009935 308.2949778 97.01937485 308.97561073 C95.62992214 310.36438728 94.24171403 311.75441004 92.854702 313.14562416 C90.75213278 315.25354095 88.64428955 317.35607666 86.53585434 319.45812416 C85.17746079 320.81717876 83.8193776 322.17654366 82.46163559 323.53624916 C81.53163742 324.46321098 81.53163742 324.46321098 80.58285141 325.40889931 C76.83260129 329.17893349 73.27422848 333.06563331 69.81332016 337.10329628 C68.34818585 338.76815692 66.82925717 340.33900654 65.24288559 341.88781166 C62.0563708 340.49480451 60.05586849 338.88828611 57.71163559 336.33312416 C57.06581528 335.63574135 56.41999496 334.93835854 55.75460434 334.21984291 C54.75880356 333.12736244 54.75880356 333.12736244 53.74288559 332.01281166 C52.42049044 330.57743518 51.0975886 329.14252532 49.77413559 327.70812416 C49.16054184 327.04071205 48.54694809 326.37329994 47.91476059 325.68566322 C46.0714481 323.70345628 44.18147616 321.77694839 42.24288559 319.88781166 C43.76095839 316.31302176 45.8586327 314.02969443 48.60079575 311.30285072 C49.50157852 310.40221901 50.4023613 309.5015873 51.33044052 308.57366371 C52.31416967 307.60014686 53.29800809 306.62674041 54.28194809 305.65343666 C55.28843687 304.65068005 56.29448348 303.64747944 57.30010605 302.64385414 C59.94250706 300.00907353 62.59085987 297.38035555 65.24050522 294.75286293 C67.94544611 292.06841478 70.6447038 289.37826544 73.34444809 286.68859291 C78.63838733 281.41607548 83.93862842 276.14995109 89.24288559 270.88781166 C84.36564122 265.00806116 79.10401681 259.61900349 73.68819809 254.23546791 C72.78664993 253.3353347 71.88510178 252.43520149 70.95623398 251.50779152 C68.58090342 249.13708343 66.20343154 246.76856651 63.8248558 244.40111732 C61.38943842 241.97600438 58.95691647 239.54799081 56.52413559 237.12023354 C51.7663579 232.37344039 47.00573179 227.62951885 42.24288559 222.88781166 C43.90150439 219.36436522 45.80945867 217.08879288 48.59444809 214.34093666 C49.87061996 213.07443275 49.87061996 213.07443275 51.17257309 211.78234291 C52.06202621 210.9096476 52.95147934 210.03695229 53.86788559 209.13781166 C54.76507309 208.2496476 55.66226059 207.36148354 56.58663559 206.44640541 C58.80095563 204.25564197 61.01980994 202.06968403 63.24288559 199.88781166 C66.46156627 201.30500363 68.61230304 203.00886109 71.09005356 205.49205971 C71.83117386 206.23010338 72.57229416 206.96814705 73.33587265 207.72855568 C74.1276088 208.52747734 74.91934494 209.326399 75.73507309 210.14953041 C76.55863297 210.97354851 77.38219284 211.7975666 78.23070908 212.64655495 C79.97297929 214.39184596 81.71281868 216.13956647 83.45040512 217.88952065 C86.09560715 220.5528803 88.74862387 223.20824962 91.40304184 225.86242104 C93.09752296 227.56182162 94.79154813 229.26167697 96.48507309 230.96203041 C97.66660461 232.14523117 97.66660461 232.14523117 98.87200546 233.35233498 C103.19899528 237.71625903 107.30750886 242.16700488 111.24288559 246.88781166 C122.66085425 241.36092669 131.80142525 228.97975459 136.11788559 217.32531166 C139.39689724 204.72284521 137.88878797 191.53412658 132.24288559 179.88781166 C127.35411468 172.19396817 120.60456745 165.98082991 114.17892075 159.59679604 C112.95594644 158.37438668 111.73341396 157.15153516 110.51128769 155.92827797 C107.21042516 152.62684421 103.90345524 149.33159127 100.5953145 146.0374527 C97.1323946 142.58707862 93.67517914 139.13099822 90.21734238 135.67553139 C83.67667813 129.14107061 77.13093471 122.61172265 70.58332956 116.08421755 C63.12592303 108.64920533 55.67422934 101.20847863 48.22299886 93.76727772 C32.90262143 78.46777662 17.57512035 63.17542943 2.24288559 47.88781166 C-3.16316109 52.41733364 -8.25497497 57.18237286 -13.29104996 62.11779213 C-14.11470047 62.9220211 -14.93835098 63.72625008 -15.7869606 64.55484962 C-23.34247726 71.94228894 -30.86371274 79.36472517 -38.37265682 86.79947662 C-43.40610031 91.78211872 -48.45031162 96.75272483 -53.52396011 101.69445229 C-57.97144087 106.02629582 -62.39688131 110.37930844 -66.79765159 114.75861657 C-69.11923172 117.06752733 -71.45257217 119.36187783 -73.80649757 121.63786888 C-88.44837905 135.790459 -88.44837905 135.790459 -93.75711441 154.88781166 C-93.85791306 155.76548195 -93.9587117 156.64315224 -94.06256485 157.54741859 C-95.13726915 170.34443381 -92.46529696 181.5510323 -84.75711441 191.88781166 C-82.52921637 194.13360446 -80.28492838 195.96667304 -77.75711441 197.88781166 C-71.47198438 192.70020584 -65.75400283 187.013539 -60.01102066 181.23937416 C-58.98991393 180.2163986 -57.96858341 179.19364638 -56.94704056 178.17110634 C-54.28000088 175.50027805 -51.61598005 172.82645884 -48.95261002 170.15197182 C-46.22587591 167.4149443 -43.49625136 164.68080265 -40.76688004 161.94640541 C-35.42748352 156.59633618 -30.09127789 151.24309893 -24.75711441 145.88781166 C-20.55297049 147.78963272 -17.91727033 150.68333012 -14.88211441 154.07531166 C-14.35198746 154.65885414 -13.8218605 155.24239662 -13.2756691 155.84362221 C-9.69670152 159.79709454 -6.18060184 163.79864612 -2.75711441 167.88781166 C-4.41695305 172.21921388 -7.71397668 175.10303244 -10.9475441 178.28942299 C-11.58193405 178.9224987 -12.21632401 179.55557442 -12.8699379 180.20783424 C-14.9683979 182.29980355 -17.07374151 184.38470667 -19.17898941 186.46984291 C-20.64200209 187.92658225 -22.10449885 189.3838399 -23.56650162 190.84159279 C-27.42005119 194.68183381 -31.27911905 198.51647731 -35.13980484 202.34954262 C-41.30596462 208.47261909 -47.46552175 214.60231791 -53.62171555 220.7354126 C-55.76737522 222.87090226 -57.91644714 225.00291252 -60.06589127 227.13459206 C-61.39374831 228.45561441 -62.7214926 229.77675012 -64.0491066 231.09801674 C-64.6415416 231.68371437 -65.23397659 232.269412 -65.84436417 232.87285805 C-69.69292014 236.71101065 -73.27854255 240.71177963 -76.75711441 244.88781166 C-80.86349426 243.01719442 -83.4656112 240.26444083 -86.44461441 236.95031166 C-86.97715836 236.36620522 -87.5097023 235.78209877 -88.05838394 235.18029213 C-91.96039417 230.86544523 -95.62944271 226.39321918 -99.26102066 221.84874916 C-102.94425373 217.47959319 -106.89506798 213.36615166 -110.88553238 209.27697182 C-120.16154201 199.59368454 -123.13478582 187.78092725 -125.75711441 174.88781166 C-125.9156691 175.96417885 -126.07422379 177.04054604 -126.23758316 178.14953041 C-128.91481775 195.39576359 -133.78046437 205.95655656 -146.17166519 218.29015541 C-148.05715633 220.19016373 -149.82817688 222.16795163 -151.56961441 224.20031166 C-154.8364078 227.99374177 -158.18842236 231.70604981 -161.54617691 235.41906166 C-164.16047225 238.33820415 -166.71429545 241.30593811 -169.24930191 244.29406166 C-170.75711441 245.88781166 -170.75711441 245.88781166 -173.75711441 247.88781166 C-182.11414637 239.55401227 -190.4684291 231.21746753 -198.81927204 222.8774662 C-202.69752962 219.00441364 -206.57670622 215.1322912 -210.45804214 211.26232338 C-214.20796034 207.52331899 -217.95538706 203.78183377 -221.70114326 200.03866005 C-223.12629673 198.61534558 -224.55232591 197.19290736 -225.97926903 195.7713871 C-242.57465236 179.23653338 -242.57465236 179.23653338 -248.75711441 170.88781166 C-248.12096207 170.26906166 -248.12096207 170.26906166 -247.47195816 169.63781166 C-243.00289198 165.23750034 -238.83296776 160.6522795 -234.75711441 155.88781166 C-234.17188004 155.20718666 -233.58664566 154.52656166 -232.98367691 153.82531166 C-231.57211357 152.18180129 -230.16421279 150.53514635 -228.75711441 148.88781166 C-224.97410214 150.4572485 -222.58454894 152.81882443 -219.7131691 155.70470619 C-219.22490646 156.19267677 -218.73664383 156.68064735 -218.23358536 157.18340492 C-216.62726479 158.79111441 -215.02813728 160.40578267 -213.42898941 162.02062416 C-212.31413124 163.13921401 -211.19882954 164.25736195 -210.08310318 165.37508583 C-207.15240832 168.31340491 -204.22777019 171.25768121 -201.30435562 174.20324135 C-198.31828716 177.20979429 -195.32652582 180.21067048 -192.33523941 183.21203041 C-186.47027985 189.09841852 -180.61170709 194.99111266 -174.75711441 200.88781166 C-166.88306124 197.16404068 -162.32729663 190.16621148 -159.44852066 182.14953041 C-155.65069171 169.72612383 -156.33035761 153.70698876 -161.75711441 141.88781166 C-166.38462425 135.94623996 -171.84214325 130.66374493 -177.17093277 125.36046791 C-178.38678558 124.14439606 -178.38678558 124.14439606 -179.62720108 122.9037571 C-182.28142087 120.25022864 -184.9391548 117.60025033 -187.59695816 114.95031166 C-189.44805277 113.101084 -191.29892533 111.25163404 -193.14958572 109.40197182 C-197.50704983 105.04760142 -201.86705406 100.69578386 -206.22800308 96.34490395 C-211.19741719 91.38671223 -216.16395271 86.42564127 -221.13026226 81.46434021 C-231.33603894 71.26898347 -241.5453812 61.07720226 -251.75711441 50.88781166 C-255.58077787 52.47088572 -258.02336321 54.88969636 -260.94324112 57.78632545 C-261.70768364 58.54079626 -261.70768364 58.54079626 -262.48756945 59.31050891 C-264.19337309 60.99663409 -265.89196714 62.6898368 -267.5906105 64.38317299 C-268.8126006 65.59426643 -270.03497662 66.80497058 -271.2577095 68.0153141 C-274.57910095 71.30619539 -277.8937281 74.60380615 -281.20623732 77.90362573 C-283.27861763 79.96791618 -285.35203859 82.03115606 -287.4257431 84.09411621 C-293.92116099 90.55680536 -300.41214858 97.02390058 -306.89731634 103.49687558 C-314.36835381 110.95368235 -321.85393454 118.39547114 -329.35251749 125.82457525 C-335.1561343 131.57627668 -340.94610978 137.34148509 -346.72614539 143.1168825 C-350.1741793 146.56152945 -353.62762148 150.00028834 -357.09550476 153.42496109 C-360.36309609 156.65254846 -363.61330161 159.89671219 -366.85146141 163.15381813 C-368.03611855 164.33973254 -369.2266724 165.51979355 -370.42378807 166.69313049 C-381.90607272 177.96042764 -388.65963315 189.86356142 -389.06961441 206.26281166 C-388.78176407 222.43040567 -381.39506384 233.86591049 -370.02518082 244.87536049 C-368.61105812 246.22189796 -367.18533548 247.55623713 -365.75711441 248.88781166 C-365.13618912 248.26688637 -364.51526382 247.64596107 -363.87552261 247.00621986 C-348.50271988 231.63341713 -333.12991714 216.2606144 -317.75711441 200.88781166 C-314.49460789 202.4394327 -312.28711874 204.10072352 -309.71805191 206.66124916 C-308.97297379 207.40374916 -308.22789566 208.14624916 -307.46023941 208.91124916 C-306.69195816 209.68726479 -305.92367691 210.46328041 -305.13211441 211.26281166 C-303.96809097 212.41523354 -303.96809097 212.41523354 -302.78055191 213.59093666 C-302.03805191 214.33601479 -301.29555191 215.08109291 -300.53055191 215.84874916 C-299.8542775 216.52727943 -299.17800308 217.20580971 -298.4812355 217.9049015 C-296.75711441 219.88781166 -296.75711441 219.88781166 -294.75711441 223.88781166 C-310.26711441 239.39781166 -325.77711441 254.90781166 -341.75711441 270.88781166 C-339.85386698 274.69430653 -338.27420263 276.61398622 -335.30740738 279.56456947 C-334.38660385 280.48522194 -333.46580032 281.4058744 -332.51709366 282.35442543 C-331.51126976 283.35003696 -330.50533661 284.34553814 -329.49930191 285.34093666 C-328.47039292 286.36611359 -327.44192604 287.39173441 -326.41388321 288.41777992 C-323.7122986 291.1117433 -321.004761 293.79964534 -318.29593277 296.4863224 C-315.53066952 299.2310947 -312.77108808 301.98156638 -310.01102066 304.73156166 C-304.59859167 310.12256739 -299.17986003 315.5071813 -293.75711441 320.88781166 C-295.22008952 323.93402534 -296.73760413 326.16793708 -299.05789566 328.63781166 C-299.70564957 329.32874916 -300.35340347 330.01968666 -301.02078629 330.73156166 C-301.69689957 331.44312416 -302.37301285 332.15468666 -303.06961441 332.88781166 C-304.06638199 333.95515541 -304.06638199 333.95515541 -305.08328629 335.04406166 C-308.47072051 338.63588114 -311.88006058 341.81966924 -315.75711441 344.88781166 C-340.75711441 319.88781166 -340.75711441 319.88781166 -365.75711441 294.88781166 C-378.19872072 306.70820046 -389.44517712 318.18277995 -390.75320816 336.16124916 C-390.77884272 354.05416961 -383.01267113 366.80836371 -370.81925654 379.07553482 C-369.14440284 380.74932519 -367.46474334 382.41820214 -365.78494644 384.08703041 C-364.57182422 385.29958767 -363.35914385 386.51258711 -362.14686966 387.7259922 C-358.87286563 391.00056742 -355.5927549 394.26896189 -352.31147242 397.53624153 C-348.87657938 400.958588 -345.44739148 404.38664152 -342.01758194 407.81408119 C-335.53004168 414.29541819 -329.03742243 420.77164228 -322.54294097 427.24602318 C-315.14599247 434.62057669 -307.75475739 442.00084529 -300.3639853 449.38158798 C-285.16802217 464.55667527 -269.96493547 479.72460851 -254.75711441 494.88781166 C-249.37192264 490.37946868 -244.31478187 485.63190923 -239.31497574 480.70202065 C-238.09413033 479.50307922 -238.09413033 479.50307922 -236.84862137 478.27991676 C-229.38871734 470.94548755 -221.95600094 463.58335157 -214.53272343 456.21186161 C-209.06069126 450.77872633 -203.57440351 445.36087927 -198.06844121 439.96212715 C-193.70870076 435.68440003 -189.37408409 431.38195952 -185.0473423 427.07087326 C-183.21355137 425.25113265 -181.37202854 423.43914769 -179.52253532 421.63536835 C-165.8560584 408.9446808 -165.8560584 408.9446808 -159.75711441 391.88781166 C-159.57836273 391.020187 -159.39961105 390.15256233 -159.21544266 389.25864601 C-156.73099019 376.40710284 -158.93857277 363.25120086 -166.13211441 352.32531166 C-169.07881876 348.18456361 -171.15631951 346.95500826 -175.75711441 343.88781166 C-192.91711441 361.04781166 -210.07711441 378.20781166 -227.75711441 395.88781166 C-234.98552822 392.27360476 -240.01857498 385.73365475 -245.21414566 379.64953041 C-246.66791807 377.98965355 -248.17853027 376.42847185 -249.75711441 374.88781166 C-248.2158409 371.17513072 -245.94868207 368.90665468 -243.06961441 366.13781166 C-240.19689623 363.36785012 -237.46437752 360.57063125 -234.89041519 357.52550697 C-229.50342865 351.34527591 -223.6303861 345.63770243 -217.82352066 339.85656166 C-216.57777197 338.61268153 -215.33224646 337.36857785 -214.08693314 336.12426186 C-210.83250205 332.87362151 -207.5750776 329.62599738 -204.3169899 326.3790226 C-200.98334573 323.05566714 -197.65258364 319.72942586 -194.32156754 316.40343666 C-187.80287795 309.89542357 -181.28101788 303.39059783 -174.75711441 296.88781166 C-170.71565355 300.92125181 -166.77398853 305.0233723 -162.88211441 309.20031166 C-162.25861099 309.86893227 -161.63510757 310.53755287 -160.99271011 311.22643471 C-157.39461521 315.09590616 -153.84108251 318.99255461 -150.39773941 323.00109291 C-148.36955664 325.3335031 -146.27959084 327.60607421 -144.19461441 329.88781166 C-142.71337389 331.55263547 -141.23405192 333.21916928 -139.75711441 334.88781166 C-139.18605972 335.49882729 -138.61500504 336.10984291 -138.02664566 336.73937416 C-126.82182765 349.81646253 -125.83469888 372.01862729 -126.99930191 388.26671791 C-129.70295445 414.28247658 -141.56291779 431.7570395 -160.2534523 449.365839 C-162.23582617 451.36271098 -164.05821271 453.37296343 -165.88577652 455.50548744 C-170.03259766 460.29058347 -174.49249264 464.73702264 -178.98747635 469.19333839 C-180.51305418 470.70593498 -182.03529527 472.22182368 -183.55679703 473.73851967 C-187.33328423 477.50176967 -191.11524952 481.25949834 -194.89706802 485.0173893 C-198.10471309 488.20516834 -201.31020736 491.39508208 -204.51298904 494.58774757 C-205.9991513 496.06751722 -207.48833437 497.54419731 -208.97769547 499.02074623 C-213.54301699 503.56963781 -217.9588591 508.16379717 -222.15301895 513.0566349 C-224.82218836 516.10366116 -227.68965413 518.94376363 -230.56570816 521.79406166 C-231.17729279 522.40423134 -231.78887741 523.01440102 -232.4189949 523.64306068 C-234.34183243 525.56037331 -236.26814535 527.47414868 -238.19461441 529.38781166 C-239.511905 530.70007751 -240.82896427 532.01257561 -242.14578629 533.32531166 C-245.34690051 536.51549672 -248.55113306 539.70251817 -251.75711441 542.88781166 C-256.49052647 538.93764405 -260.96149803 534.82105715 -265.29983902 530.4427433 C-265.91223938 529.82888268 -266.52463974 529.21502205 -267.15559769 528.58255959 C-268.47326928 527.26110882 -269.78978539 525.93850503 -271.10524178 524.61484909 C-273.1932958 522.51392166 -275.28455357 520.41623002 -277.37663651 518.31931496 C-282.57063094 513.11201688 -287.75915974 507.89928388 -292.94784927 502.68670082 C-297.33992752 498.27481425 -301.73410028 493.86503367 -306.13101768 489.45796967 C-308.18025185 487.4023051 -310.22642367 485.34362639 -312.27248001 483.28479958 C-313.54316827 482.01047482 -314.81399938 480.73629248 -316.08499527 479.46227455 C-316.64368301 478.89842049 -317.20237076 478.33456642 -317.77798843 477.75362587 C-321.3037815 474.227372 -324.9746151 470.93044285 -328.74403286 467.66722012 C-332.04905847 464.74583299 -335.17926231 461.65450674 -338.31546402 458.55407143 C-339.37817772 457.50844284 -339.37817772 457.50844284 -340.46236038 456.44169044 C-347.82388502 449.1903623 -355.1544369 441.90759141 -362.48245621 434.6224308 C-365.94618383 431.18095706 -369.41939658 427.74951057 -372.90140152 424.32653236 C-377.13450106 420.16501095 -381.34969566 415.98609355 -385.5532589 411.7947464 C-387.14461593 410.21369978 -388.74191352 408.63860628 -390.3455677 407.07003403 C-403.41509294 394.27182464 -412.70864513 381.34535436 -418.75711441 363.88781166 C-419.07551285 362.98031166 -419.39391129 362.07281166 -419.72195816 361.13781166 C-425.60929092 340.73562626 -422.63447153 317.60244919 -412.72195816 299.05578041 C-409.62033722 294.05495619 -405.92405217 290.01748917 -401.75711441 285.88781166 C-400.6013918 284.72060948 -399.44649709 283.55258717 -398.29227066 282.38390541 C-395.13401505 279.19784072 -391.95143381 276.03769694 -388.75711441 272.88781166 C-390.1767618 269.62731273 -391.88492889 267.56585018 -394.46023941 265.12999916 C-395.19371597 264.42101479 -395.92719254 263.71203041 -396.68289566 262.98156166 C-398.21250015 261.5213678 -399.74625602 260.06550826 -401.28445816 258.61437416 C-414.72789314 245.56978454 -420.57322827 228.18114768 -421.04031754 209.70104408 C-421.3284244 183.87946677 -411.82551799 162.46539023 -394.07335091 144.11336136 C-391.07761104 141.06750652 -388.05421324 138.04945601 -385.03030777 135.03161049 C-383.87920771 133.87915192 -382.72831973 132.72648149 -381.57762527 131.57361794 C-378.48086672 128.47233954 -375.38100058 125.37418556 -372.28038859 122.27676034 C-369.02084417 119.01976667 -365.76376184 115.76031225 -362.50627518 112.50126076 C-357.04017002 107.03334231 -351.57197344 101.56752208 -346.10257339 96.10289955 C-339.79486916 89.80064177 -333.49078256 83.49478251 -327.18855184 77.18705159 C-321.75744063 71.75139178 -316.32436988 66.31769634 -310.88967806 60.88561648 C-307.65241385 57.64990473 -304.41581349 54.41353672 -301.1809864 51.17538834 C-298.14049025 48.13198784 -295.09752821 45.09107394 -292.05270576 42.05200195 C-290.94091426 40.94152411 -289.82995684 39.83021042 -288.71993256 38.71796608 C-283.4092672 33.39766537 -278.08638187 28.13952319 -272.35841084 23.26382065 C-270.07033645 21.29765694 -267.94466808 19.18777889 -265.81961441 17.04796791 C-264.9881691 16.21329994 -264.15672379 15.37863197 -263.30008316 14.51867104 C-262.04131363 13.24733315 -262.04131363 13.24733315 -260.75711441 11.95031166 C-259.88699722 11.07568275 -259.01688004 10.20105385 -258.12039566 9.29992104 C-255.99697892 7.16483717 -253.87595064 5.02743961 -251.75711441 2.88781166 C-248.91696134 4.17959946 -246.86013053 5.53564249 -244.66019058 7.74181557 C-244.08246399 8.31646553 -243.5047374 8.89111549 -242.90950394 9.48317909 C-242.29589508 10.10397346 -241.68228622 10.72476784 -241.05008316 11.36437416 C-240.40646332 12.00845222 -239.76284348 12.65253029 -239.09972 13.31612587 C-237.73827143 14.68059304 -236.37925166 16.04748734 -235.02249527 17.41662025 C-232.96767426 19.4895486 -230.90511454 21.55451145 -228.84109879 23.61828041 C-227.51445716 24.94984381 -226.18827097 26.28186115 -224.86258316 27.61437416 C-224.255047 28.22302315 -223.64751083 28.83167213 -223.02156448 29.45876503 C-220.06629582 32.44614324 -217.21818713 35.47795379 -214.48294449 38.66857338 C-210.38702402 43.39985345 -205.96912067 47.78918552 -201.52675247 52.19333839 C-200.00117464 53.70593498 -198.47893355 55.22182368 -196.95743179 56.73851967 C-193.72682488 59.95780278 -190.49228218 63.17311278 -187.25711441 66.38781166 C-183.50260314 70.11856816 -179.74980828 73.85101917 -176.00123978 77.58774757 C-174.51507752 79.06751722 -173.02589445 80.54419731 -171.53653336 82.02074623 C-166.90795327 86.63266871 -162.43174105 91.29389053 -158.18002701 96.25564003 C-156.52278774 98.15659932 -154.76151718 99.88216046 -152.88992691 101.57140541 C-138.66454765 114.81348776 -130.0892197 129.56160096 -126.75711441 148.88781166 C-126.71886818 151.22083152 -126.71137157 153.55492674 -126.75711441 155.88781166 C-126.09711441 155.88781166 -125.43711441 155.88781166 -124.75711441 155.88781166 C-124.83961441 154.71218666 -124.92211441 153.53656166 -125.00711441 152.32531166 C-124.97686956 133.08958402 -114.53846852 114.34327693 -101.31961441 101.09484291 C-98.48233524 98.2791227 -95.62225279 95.48764175 -92.75711441 92.70031166 C-90.59078943 90.57683867 -88.42745283 88.45040651 -86.26663589 86.32132912 C-84.93137561 85.00735756 -83.59260288 83.69694111 -82.24954605 82.39093971 C-79.1868511 79.39265026 -76.25220903 76.3541402 -73.46219254 73.09948158 C-69.37827046 68.36527685 -64.96506139 63.98241344 -60.52675247 59.58228493 C-59.00117464 58.06968834 -57.47893355 56.55379965 -55.95743179 55.03710365 C-52.18094459 51.27385365 -48.3989793 47.51612498 -44.6171608 43.75823402 C-41.40951573 40.57045498 -38.20402146 37.38054124 -35.00123978 34.18787575 C-33.51507752 32.7081061 -32.02589445 31.23142601 -30.53653336 29.75487709 C-25.94493619 25.17980444 -21.46717205 20.5736773 -17.26362991 15.63758278 C-14.48916718 12.4151302 -11.53962709 9.36657874 -8.56961441 6.32531166 C-7.96697769 5.68529213 -7.36434097 5.0452726 -6.74344254 4.38585854 C-5.86269058 3.48770424 -5.86269058 3.48770424 -4.96414566 2.57140541 C-4.44312271 2.03056313 -3.92209976 1.48972084 -3.38528824 0.9324894 C-1.75711441 -0.11218834 -1.75711441 -0.11218834 0 0 Z " fill="#ecb928" transform="translate(794.7571144104004,202.1121883392334)"/>
<path d="M0 0 C0.33714509 4.20803702 0.66904245 8.41647218 1 12.625 C1.14308594 14.40970703 1.14308594 14.40970703 1.2890625 16.23046875 C1.37929688 17.38417969 1.46953125 18.53789063 1.5625 19.7265625 C1.64628906 20.78439941 1.73007812 21.84223633 1.81640625 22.93212891 C1.99779014 25.96307303 2.03182747 28.96445471 2 32 C-4.86925932 31.170789 -11.46883698 29.49145757 -18.17382812 27.81640625 C-40.68596666 22.30655627 -65.29714596 22.86667263 -86 34 C-97.79946149 41.44462871 -106.83017474 51.14923071 -110.59423828 64.85180664 C-111.45690671 69.41896639 -111.33765319 74.05500089 -111.3125 78.6875 C-111.30686035 79.7609668 -111.3012207 80.83443359 -111.29541016 81.94042969 C-111.07186222 96.49981887 -107.30963169 110.32981793 -97.03515625 121.19140625 C-84.84894484 132.02099527 -68.94443163 136.58357254 -52.80859375 136.265625 C-47.72403022 135.78474834 -42.73516952 134.77163568 -37.734375 133.75390625 C-34.50253697 133.10145359 -31.25218004 132.54203001 -28 132 C-28 119.13 -28 106.26 -28 93 C-36.91 93 -45.82 93 -55 93 C-55 84.75 -55 76.5 -55 68 C-43.26171495 67.2567719 -31.6065782 66.83921613 -19.84619141 66.86962891 C-17.34141198 66.875073 -14.8368059 66.8695954 -12.33203125 66.86328125 C-10.70833295 66.86394091 -9.08463475 66.86521973 -7.4609375 66.8671875 C-6.72749115 66.86516327 -5.9940448 66.86313904 -5.2383728 66.86105347 C-0.41418242 66.88271267 4.2224332 67.32325084 9 68 C9.76381081 78.53449182 10.1509925 89.00370999 10.1328125 99.5703125 C10.13348903 100.99038713 10.13446193 102.41046165 10.13571167 103.83053589 C10.13716747 106.76984792 10.1351003 109.70912911 10.13037109 112.6484375 C10.12462189 116.40277059 10.12799867 120.15703298 10.13394356 123.9113636 C10.13756205 126.82822196 10.13640556 129.74506359 10.13381577 132.66192245 C10.13315279 134.04692468 10.13395271 135.43192846 10.13629532 136.81692886 C10.13884895 138.7466046 10.13426355 140.67628575 10.12939453 142.60595703 C10.12859894 143.6990921 10.12780334 144.79222717 10.12698364 145.91848755 C9.99912435 149.02124939 9.57670251 151.95140865 9 155 C2.35133239 156.4345975 -4.31214499 157.76066996 -11 159 C-11.8554541 159.15968262 -12.7109082 159.31936523 -13.59228516 159.48388672 C-26.82040174 161.8435798 -39.97319647 162.3103595 -53.375 162.375 C-54.17234558 162.38285522 -54.96969116 162.39071045 -55.79119873 162.39880371 C-83.1814036 162.60897136 -108.92926765 156.04329941 -129.3359375 136.796875 C-146.72675564 118.8718679 -149.54236702 96.04563273 -149.26953125 72.0546875 C-148.70411645 51.03685452 -140.15274906 32.49741061 -124.9375 17.9375 C-91.52036039 -10.33854121 -40.35451438 -9.62815177 0 0 Z " fill="#ecb928" transform="translate(421,809)"/>
<path d="M0 0 C1.04776611 0.11754639 2.09553223 0.23509277 3.17504883 0.35620117 C9.30831589 1.13714356 14.91200468 2.47451049 20.6875 4.6875 C21.71222362 15.04452803 21.7925173 25.29078698 21.6875 35.6875 C20.59695312 35.43355469 19.50640625 35.17960938 18.3828125 34.91796875 C13.49435655 33.79378276 8.5941107 32.72933415 3.6875 31.6875 C2.9454834 31.52781738 2.2034668 31.36813477 1.43896484 31.20361328 C-22.5948109 26.16718383 -46.92433674 26.71695545 -68.3125 39.6875 C-79.24876409 47.04844698 -86.32428409 56.06364304 -90.3125 68.6875 C-93.42471323 86.11192949 -90.80774358 103.58742514 -81.3125 118.6875 C-72.69097408 130.70932601 -60.01890323 136.53502961 -45.6875 138.9375 C-33.02507632 140.58331853 -20.25273472 139.46359389 -8.3125 134.6875 C-7.9825 122.1475 -7.6525 109.6075 -7.3125 96.6875 C-16.5525 96.6875 -25.7925 96.6875 -35.3125 96.6875 C-35.3125 88.4375 -35.3125 80.1875 -35.3125 71.6875 C-14.1925 71.6875 6.9275 71.6875 28.6875 71.6875 C29.70130527 75.74272106 29.84236854 79.39215703 29.84863281 83.52954102 C29.85359772 84.31534546 29.85856262 85.1011499 29.86367798 85.9107666 C29.87825731 88.5043221 29.8850927 91.09781655 29.890625 93.69140625 C29.89637766 95.49454246 29.90213538 97.29767865 29.90789795 99.10081482 C29.91839429 102.87767827 29.92424665 106.65452051 29.92773438 110.43139648 C29.93323206 115.27608295 29.95729285 120.12049019 29.98570633 124.96508884 C30.00430241 128.68736094 30.00953657 132.40956517 30.01107025 136.13187981 C30.01410156 137.91850253 30.02214612 139.70512393 30.03525543 141.49170113 C30.05226122 143.98630421 30.05044994 146.48021641 30.04394531 148.97485352 C30.0531601 149.71519333 30.06237488 150.45553314 30.0718689 151.2183075 C30.03100765 156.20670426 30.03100765 156.20670426 28.30160522 158.62728882 C26.20026246 160.0075378 24.44081526 160.37422275 21.9609375 160.78515625 C21.00960937 160.94693359 20.05828125 161.10871094 19.078125 161.27539062 C17.58539063 161.51032227 17.58539063 161.51032227 16.0625 161.75 C14.65097656 161.99073242 14.65097656 161.99073242 13.2109375 162.23632812 C-2.10906545 164.772685 -17.10512198 166.09826532 -32.625 166.0625 C-33.47801697 166.06228851 -34.33103394 166.06207703 -35.2098999 166.06185913 C-47.920323 166.03045295 -60.09622314 165.53114243 -72.3125 161.6875 C-73.49328125 161.32527344 -74.6740625 160.96304688 -75.890625 160.58984375 C-88.64795393 156.13082475 -99.81515795 149.28751602 -109.3125 139.6875 C-109.93511719 139.09839844 -110.55773437 138.50929688 -111.19921875 137.90234375 C-123.49757737 125.32761752 -128.6424871 105.81652552 -129.3125 88.6875 C-129.35246094 87.86765625 -129.39242187 87.0478125 -129.43359375 86.203125 C-129.99496371 63.8804136 -124.2351996 42.56343017 -108.77612305 25.98657227 C-80.42593897 -2.88799726 -37.65418297 -4.25580215 0 0 Z " fill="#ecb928" transform="translate(165.3125,805.3125)"/>
<path d="M0 0 C0.87648193 -0.00287018 1.75296387 -0.00574036 2.65600586 -0.00869751 C4.50863288 -0.01073848 6.36128142 -0.00520628 8.21386719 0.00732422 C11.05192179 0.02337766 13.88855227 0.00747695 16.7265625 -0.01171875 C18.52604481 -0.00973632 20.32552624 -0.00589266 22.125 0 C22.97505615 -0.00607269 23.8251123 -0.01214539 24.70092773 -0.0184021 C30.63336863 0.05252795 30.63336863 0.05252795 32.71882629 1.73355103 C34.77012959 4.27522993 35.86202905 7.1945105 37.07421875 10.1953125 C37.35898575 10.88303741 37.64375275 11.57076233 37.93714905 12.27932739 C38.88193991 14.56614731 39.81593188 16.85721918 40.75 19.1484375 C41.41959669 20.77517034 42.08985688 22.40163021 42.76074219 24.02783203 C44.5219208 28.30216894 46.27401982 32.58016594 48.02362061 36.85925293 C49.6587559 40.85578066 51.30030084 44.84967103 52.94140625 48.84375 C54.89351894 53.59649526 56.84427504 58.3497878 58.79101562 63.10473633 C63.67711967 75.03797193 68.59546245 86.95764913 73.52459717 98.87316895 C79.32049099 112.88643178 85.11409109 126.90070583 90.83901978 140.94314575 C91.39815242 142.31401921 91.95816955 143.6845323 92.51913452 145.05465698 C93.27849974 146.91032621 94.03389394 148.76761898 94.7890625 150.625 C95.20752441 151.65189941 95.62598633 152.67879883 96.05712891 153.73681641 C96.89863138 155.96461144 97.65535034 158.05312084 98.0625 160.3984375 C97.0625 161.3984375 97.0625 161.3984375 93.55249023 161.51196289 C91.99201578 161.51180376 90.43153607 161.50610892 88.87109375 161.49609375 C88.05125504 161.4946788 87.23141632 161.49326385 86.38673401 161.49180603 C83.75778618 161.48619039 81.12892227 161.47363529 78.5 161.4609375 C76.72200643 161.45592451 74.94401154 161.45136126 73.16601562 161.44726562 C68.79814455 161.43621589 64.43033652 161.41894081 60.0625 161.3984375 C57.1304592 154.97882616 54.47932101 148.48336953 51.953125 141.89453125 C51.62296387 141.03863403 51.29280273 140.18273682 50.95263672 139.30090332 C49.73674344 136.14688287 48.52484729 132.99132266 47.3125 129.8359375 C43.22875 119.224375 43.22875 119.224375 39.0625 108.3984375 C18.9325 108.3984375 -1.1975 108.3984375 -21.9375 108.3984375 C-23.896875 113.0803125 -25.85625 117.7621875 -27.875 122.5859375 C-33.16678588 135.21742641 -38.52050117 147.81998259 -43.9375 160.3984375 C-57.1375 160.3984375 -70.3375 160.3984375 -83.9375 160.3984375 C-83.03253326 155.8736038 -81.66042616 152.32124596 -79.68359375 148.23046875 C-79.35124222 147.53108688 -79.01889069 146.83170502 -78.6764679 146.11112976 C-77.58101161 143.80862933 -76.47792345 141.50986909 -75.375 139.2109375 C-74.60451769 137.59404794 -73.83467007 135.97685578 -73.06542969 134.359375 C-71.47592816 131.01802146 -69.88405709 127.67781309 -68.29052734 124.33837891 C-64.73000278 116.87073973 -61.20799554 109.38500766 -57.6875 101.8984375 C-57.35646271 101.19502228 -57.02542542 100.49160706 -56.68435669 99.76687622 C-51.13498977 87.97500046 -45.63468784 76.16095313 -40.15625 64.3359375 C-37.91437087 59.49877958 -35.66393311 54.66573069 -33.40625 49.8359375 C-33.10951889 49.20099869 -32.81278778 48.56605988 -32.50706482 47.91188049 C-31.31468516 45.36078447 -30.12216052 42.80975818 -28.92800903 40.25949097 C-25.81754207 33.61631631 -22.73014029 26.96448585 -19.71484375 20.27734375 C-19.21291504 19.16713867 -18.71098633 18.05693359 -18.19384766 16.91308594 C-17.25656304 14.83438708 -16.32490872 12.7531369 -15.39990234 10.66894531 C-14.98562988 9.75081055 -14.57135742 8.83267578 -14.14453125 7.88671875 C-13.7885083 7.08790283 -13.43248535 6.28908691 -13.06567383 5.46606445 C-9.91982311 -0.29939968 -6.14329963 -0.04388695 0 0 Z M11.0625 29.3984375 C4.14411844 41.19396643 -1.39314152 53.72736322 -6.5 66.3984375 C-6.84643555 67.25268311 -7.19287109 68.10692871 -7.54980469 68.98706055 C-7.8646582 69.78281494 -8.17951172 70.57856934 -8.50390625 71.3984375 C-8.78177979 72.0996875 -9.05965332 72.8009375 -9.34594727 73.5234375 C-10.08793791 75.54758539 -10.08793791 75.54758539 -9.9375 78.3984375 C2.6025 78.3984375 15.1425 78.3984375 28.0625 78.3984375 C26.8376634 72.27425449 25.75587431 66.97310239 23.8203125 61.17578125 C23.61066864 60.54539444 23.40102478 59.91500763 23.18502808 59.26551819 C22.7458825 57.94972182 22.30382413 56.63489408 21.85888672 55.32104492 C21.18831516 53.3383477 20.52906883 51.35214273 19.87109375 49.36523438 C17.59136536 42.53915108 15.13042912 35.91243584 12.0625 29.3984375 C11.7325 29.3984375 11.4025 29.3984375 11.0625 29.3984375 Z " fill="#ecb928" transform="translate(519.9375,806.6015625)"/>
<path d="M0 0 C19.05602683 16.57193761 27.04420593 38.09187629 28.93359375 62.8515625 C30.36719595 86.98309798 25.36740261 111.31036186 9.1875 129.90234375 C-3.06922894 143.30303406 -22.97458265 150.97971843 -40.91430664 152.09521484 C-67.43871613 152.7411491 -93.19089678 150.63831399 -113.8125 131.90234375 C-114.55757812 131.24878906 -115.30265625 130.59523438 -116.0703125 129.921875 C-131.46826962 115.59394541 -138.8204033 94.25805543 -139.93847656 73.5715332 C-140.70228284 49.34968923 -136.88178326 25.7065651 -120.5625 6.77734375 C-91.09064959 -24.56105718 -33.33694847 -27.20533116 0 0 Z M-109.8125 13.90234375 C-125.18538964 32.17629017 -128.41480813 53.67538938 -126.8125 76.90234375 C-125.1131776 94.58531541 -117.49851985 112.00881324 -104.5 124.27734375 C-89.56250047 136.56966107 -72.13361183 141.32155043 -53.0625 141.21484375 C-52.01481445 141.2099292 -50.96712891 141.20501465 -49.88769531 141.19995117 C-31.70502112 140.92679081 -15.49438784 136.37478295 -1.8125 123.90234375 C12.99158814 107.66270767 17.05002227 86.61437036 16.328125 65.24169922 C15.06192815 44.17798705 8.17548259 23.33319772 -7.8125 8.90234375 C-35.70657297 -13.75886054 -85.00520095 -13.10525486 -109.8125 13.90234375 Z " fill="#ecb928" transform="translate(1033.8125,819.09765625)"/>
<path d="M0 0 C12.21 0 24.42 0 37 0 C38.05648274 16.15726156 38.14881267 32.27460443 38.1343255 48.45904422 C38.13175706 52.23539723 38.134151 56.01174806 38.13571167 59.7881012 C38.13751712 66.10751796 38.13516661 72.42692293 38.13037109 78.74633789 C38.12489609 86.04537463 38.12672094 93.34438358 38.1321975 100.64341968 C38.13673305 106.94190472 38.13737807 113.24038139 38.13475883 119.53886753 C38.13320303 123.28790911 38.13298391 127.03693759 38.13629532 130.78597832 C38.13971689 134.94774918 38.13497727 139.10947172 38.12939453 143.27124023 C38.13141876 144.50806046 38.13344299 145.74488068 38.13552856 147.0191803 C38.13270874 148.14996002 38.12988892 149.28073975 38.12698364 150.44578552 C38.12660662 151.42770591 38.12622959 152.40962629 38.12584114 153.42130184 C38 156 38 156 37 160 C24.79 160 12.58 160 0 160 C0 107.2 0 54.4 0 0 Z " fill="#ecb928" transform="translate(215,807)"/>
<path d="M0 0 C1.67849647 4.76256317 2.4831651 9.00392933 3 14 C-0.74319118 14.97364562 -3.14979308 14.96387553 -6.84375 13.85546875 C-7.7615625 13.59056641 -8.679375 13.32566406 -9.625 13.05273438 C-10.57375 12.76720703 -11.5225 12.48167969 -12.5 12.1875 C-38.65554016 4.38124679 -67.83871226 3.00179033 -92.52832031 15.86962891 C-108.628167 24.69740091 -118.14850856 37.7915166 -123.3125 55.375 C-129.34255982 77.51066263 -127.30052184 101.26689447 -116.19921875 121.3984375 C-107.045054 136.95032363 -91.65451583 145.38440579 -74.5625 149.8125 C-52.95343892 154.88432799 -28.15124709 153.15118909 -6.99609375 146.55078125 C-5 146 -5 146 -2 146 C-2 124.22 -2 102.44 -2 80 C-13.88 80.495 -13.88 80.495 -26 81 C-40.68944906 81.16787942 -40.68944906 81.16787942 -45 81 C-46 80 -46 80 -46.1328125 77.75 C-46.13023437 76.8425 -46.12765625 75.935 -46.125 75 C-46.12886719 73.63875 -46.12886719 73.63875 -46.1328125 72.25 C-46 70 -46 70 -45 69 C-43.28681054 68.90118407 -41.56955197 68.87201031 -39.85351562 68.87060547 C-38.75567749 68.86745331 -37.65783936 68.86430115 -36.5267334 68.86105347 C-34.73459412 68.86408981 -34.73459412 68.86408981 -32.90625 68.8671875 C-31.68925415 68.86623077 -30.4722583 68.86527405 -29.21838379 68.86428833 C-26.63924101 68.86360628 -24.06009653 68.86546228 -21.48095703 68.86962891 C-17.51721364 68.87497678 -13.55358358 68.86968471 -9.58984375 68.86328125 C-7.09114558 68.86394203 -4.59244748 68.86522318 -2.09375 68.8671875 C-0.89899048 68.86516327 0.29576904 68.86313904 1.5267334 68.86105347 C2.62457153 68.86420563 3.72240967 68.86735779 4.85351562 68.87060547 C6.31126404 68.87179886 6.31126404 68.87179886 7.79846191 68.87301636 C10 69 10 69 11 70 C11.14104754 72.6356419 11.21788965 75.24670936 11.25292969 77.88452148 C11.2750074 79.12350189 11.2750074 79.12350189 11.29753113 80.38751221 C11.34460587 83.13198091 11.38387119 85.87648525 11.421875 88.62109375 C11.45005163 90.5205943 11.47822955 92.42009483 11.50640869 94.31959534 C11.56397986 98.30685179 11.61689179 102.29414341 11.66748047 106.28149414 C11.73346667 111.40116945 11.81805567 116.52035831 11.9070549 121.639678 C11.97203216 125.56424441 12.02357642 129.48890384 12.07138824 133.41371346 C12.09670918 135.301701 12.12709843 137.18962739 12.16255951 139.07745171 C12.21077378 141.71370607 12.24009263 144.34951813 12.26464844 146.98608398 C12.28321396 147.77213516 12.30177948 148.55818634 12.32090759 149.36805725 C12.32952881 151.53929138 12.32952881 151.53929138 12 155 C8.98196206 157.01202529 7.25739132 157.52400269 3.765625 158.21875 C2.71503906 158.42886719 1.66445313 158.63898438 0.58203125 158.85546875 C-0.51753906 159.06816406 -1.61710938 159.28085937 -2.75 159.5 C-3.80316406 159.71269531 -4.85632813 159.92539062 -5.94140625 160.14453125 C-19.07561569 162.73325693 -31.97420705 164.35798321 -45.35180664 164.31567383 C-47.4336359 164.31250588 -49.5140467 164.33613595 -51.59570312 164.36132812 C-74.98458462 164.47018869 -98.37356667 157.88281133 -116 142 C-116.95132813 141.17048828 -116.95132813 141.17048828 -117.921875 140.32421875 C-132.03043897 127.24570481 -139.15817031 106.40021003 -140.1262207 87.54101562 C-140.8307944 63.65261224 -136.89223526 40.34112602 -120.625 21.75 C-119.10118291 20.1494807 -117.5599836 18.56528966 -116 17 C-115.32453125 16.30132813 -114.6490625 15.60265625 -113.953125 14.8828125 C-84.49642174 -13.57723538 -36.4070533 -7.66856133 0 0 Z " fill="#ecb928" transform="translate(764,807)"/>
<path d="M0 0 C8.13728208 -0.0699339 16.27443571 -0.12302907 24.41194534 -0.15543652 C28.19173146 -0.17100124 31.97130991 -0.19206809 35.75097656 -0.22631836 C39.40794628 -0.25924421 43.06471798 -0.27692187 46.72182465 -0.28463173 C48.1074815 -0.29011635 49.49312921 -0.30082379 50.87870026 -0.31719017 C63.36116483 -0.45858435 75.27456551 0.43413655 85 9 C94.50711714 18.84665704 97.3404051 30.00187972 97.21484375 43.3671875 C96.50017767 55.45154121 91.53671419 66.58138494 82.7265625 74.890625 C71.72585429 83.40120155 59.44808072 85.89313402 46 88 C46.72703125 88.8971875 47.4540625 89.794375 48.203125 90.71875 C54.13483102 98.06936235 59.92500339 105.50118215 65.56298828 113.0793457 C69.29671834 118.0887364 73.12038953 123.01832812 76.99414062 127.91992188 C80.45984701 132.30581581 83.88740989 136.71905453 87.28369141 141.15893555 C89.42945533 143.9637126 91.58977316 146.75499968 93.77734375 149.52734375 C94.23294678 150.10863037 94.6885498 150.68991699 95.15795898 151.28881836 C96.4245351 152.90377779 97.69647551 154.51452596 98.96875 156.125 C100.80876764 158.72933266 101.98371995 160.99534593 103 164 C100.6186023 166.3813977 96.39605514 166.13987847 93.19946289 166.27270508 C89.94474211 166.09101967 87.78218918 165.65236796 85.24365234 163.53515625 C81.51570636 159.25940777 78.60069996 154.40793703 75.63574219 149.58740234 C72.98948972 145.40158389 70.02739111 141.46333578 67.0625 137.5 C66.48250244 136.71351074 65.90250488 135.92702148 65.30493164 135.11669922 C60.67799395 128.85042667 55.91526682 122.6961848 51.11401367 116.56298828 C46.31633752 110.42966819 41.62208071 104.2256854 36.9765625 97.9765625 C34.876571 95.15544716 32.74156312 92.36475923 30.5859375 89.5859375 C30.02793457 88.86035645 29.46993164 88.13477539 28.89501953 87.38720703 C27.82287268 85.99427537 26.74344141 84.60691106 25.65576172 83.22607422 C23.03162995 79.79750273 22 78.44610886 22 74 C22.69222656 74.0721875 23.38445313 74.144375 24.09765625 74.21875 C41.12105881 75.83361823 58.54334419 76.60000802 73 66 C80.38050523 58.8222559 83.0839173 51.25735424 83.4375 41.125 C83.24671867 33.10351244 81.70027269 26.24032723 76.5 20 C75.675 19.34 74.85 18.68 74 18 C73.360625 17.443125 72.72125 16.88625 72.0625 16.3125 C64.6250024 11.57954698 55.42707978 11.84097122 46.91015625 11.68359375 C45.96563095 11.66281265 45.02110565 11.64203156 44.04795837 11.62062073 C41.05287427 11.55562646 38.05770807 11.496475 35.0625 11.4375 C33.02277822 11.39426703 30.98306452 11.35065127 28.94335938 11.30664062 C23.96232212 11.19999695 18.9812029 11.0985906 14 11 C14.24104215 23.89418696 14.48439481 36.78832822 14.73049068 49.68241978 C14.84476349 55.67326988 14.95831643 61.6641316 15.07006836 67.6550293 C15.67743889 101.65746552 15.67743889 101.65746552 16.69297791 135.64942932 C17.04933624 145.43543043 17.10478076 155.20881973 17 165 C14.68756208 165.02685412 12.3750373 165.04632841 10.0625 165.0625 C8.77472656 165.07410156 7.48695313 165.08570313 6.16015625 165.09765625 C3 165 3 165 2 164 C1.91643251 161.90944882 1.90363664 159.81605029 1.91772461 157.72387695 C1.92036127 157.06864485 1.92299793 156.41341274 1.92571449 155.73832512 C1.93169709 154.30711461 1.93979381 152.8759118 1.94970894 151.44472313 C1.97566278 147.553842 1.98335519 143.66292529 1.99169922 139.77197266 C1.99369229 138.96280364 1.99568537 138.15363462 1.99773884 137.31994534 C2.01267829 128.95577549 1.92789333 120.59379286 1.81640625 112.23046875 C1.80671625 111.49707716 1.79702625 110.76368557 1.78704262 110.00806999 C1.72675511 105.50371345 1.66231602 100.99942505 1.59614182 96.49515152 C1.56185079 94.14296761 1.52860997 91.79077083 1.49563599 89.43856812 C1.22784517 70.40332355 0.94030467 51.36978674 0.30493164 32.3425293 C-0.04589045 21.56022067 -0.04445341 10.78713176 0 0 Z " fill="#ecb928" transform="translate(793,804)"/>
<path d="M0 0 C2.31243792 -0.02685412 4.6249627 -0.04632841 6.9375 -0.0625 C8.22527344 -0.07410156 9.51304688 -0.08570313 10.83984375 -0.09765625 C14 0 14 0 15 1 C15.0909841 2.34297849 15.11302974 3.6907159 15.10679626 5.03675842 C15.10528061 5.90691086 15.10376495 6.77706329 15.10220337 7.67358398 C15.095466 8.63603027 15.08872864 9.59847656 15.08178711 10.59008789 C15.07872055 11.59841171 15.07565399 12.60673553 15.07249451 13.64561462 C15.06531691 15.84623558 15.05591543 18.04685012 15.04459953 20.24745369 C15.02724449 23.74264576 15.01691857 27.23779224 15.00868225 30.73301697 C14.98421701 40.67532686 14.94902408 50.61757641 14.90405273 60.55981445 C14.8770645 66.63640876 14.8601512 72.71296661 14.84918404 78.78960991 C14.84302179 81.09579235 14.83307735 83.40196819 14.81910515 85.70811653 C13.93606417 115.05323817 13.93606417 115.05323817 25.8984375 140.93359375 C38.55779222 153.38117488 54.89437403 155.2643045 71.75097656 155.24658203 C85.32515786 155.09694216 98.58594625 153.05604507 109.34765625 144.03125 C119.76574316 133.28212108 121.16091543 120.58552369 121.11352539 106.37329102 C121.11367142 105.2213475 121.11381744 104.06940399 121.1139679 102.8825531 C121.11327338 99.08965141 121.10550256 95.29679933 121.09765625 91.50390625 C121.09579043 88.86832201 121.0943673 86.23273742 121.09336853 83.59715271 C121.09026747 77.37833348 121.08207067 71.15953195 121.07201904 64.9407205 C121.06081976 57.85726131 121.05533786 50.77380124 121.05032361 43.69033539 C121.03988698 29.12688093 121.02210858 14.56344131 121 0 C125.62 0 130.24 0 135 0 C135.17838815 13.42331158 135.34422486 26.84671717 135.49477577 40.27037144 C135.56508851 46.50594247 135.63945279 52.74140618 135.72363281 58.97680664 C135.80496907 65.0132935 135.87493648 71.04982188 135.93757248 77.08653069 C135.96315986 79.37021543 135.99259566 81.65386097 136.02626419 83.93744087 C136.19478134 95.53982681 136.10675683 107.03222639 135.13037109 118.60131836 C135.05236078 119.53497758 134.97435047 120.4686368 134.89397621 121.43058872 C133.5310405 135.74083083 128.66304078 145.53690743 117.6875 154.9921875 C103.97210841 165.50431329 87.13906094 167.4230125 70.4375 167.375 C69.37360046 167.37418427 69.37360046 167.37418427 68.28820801 167.37335205 C48.00453469 167.30178148 30.2569246 163.35624748 15 149 C4.8292863 138.31516231 1.90593771 123.60660175 1.39477539 109.34301758 C1.35746591 108.4428658 1.32015642 107.54271402 1.28171635 106.61528492 C0.86935583 95.91769991 0.7710473 85.21591138 0.68359375 74.51171875 C0.66295023 72.34454521 0.64195229 70.17737501 0.62062073 68.01020813 C0.56616184 62.38315596 0.51642595 56.75607225 0.46777344 51.12896729 C0.41699174 45.35613288 0.36160553 39.5833427 0.30664062 33.81054688 C0.1999951 22.54040261 0.0983537 11.27021948 0 0 Z " fill="#ecb928" transform="translate(1069,804)"/>
<path d="M0 0 C8.39805072 -0.06991506 16.79597716 -0.12301976 25.1942482 -0.15543652 C29.09509915 -0.17100523 32.99574907 -0.19207974 36.89648438 -0.22631836 C40.67016285 -0.25922949 44.44364957 -0.27691889 48.21746063 -0.28463173 C49.64777387 -0.29011891 51.07807819 -0.30083163 52.50830841 -0.31719017 C64.922677 -0.45336473 77.41562999 0.21729663 87 9 C92.33155295 15.03307308 96.19462716 21.12483915 98 29 C98.226875 29.969375 98.45375 30.93875 98.6875 31.9375 C100.12489818 46.02400218 97.41329731 57.78088511 89.25 69.515625 C81.02786957 79.58773477 68.84615513 85.53037598 56 87 C30.79091358 88.51409413 30.79091358 88.51409413 21 85 C18.63768979 81.01360153 18 78.6363885 18 74 C18.58410645 74.06928711 19.16821289 74.13857422 19.77001953 74.20996094 C33.97989144 75.77736977 50.45277884 77.26458176 64 72 C64.73863281 71.7215625 65.47726562 71.443125 66.23828125 71.15625 C74.46780517 67.56067646 79.73081658 61.23045676 83 53 C86.47992759 43.7781919 85.88498542 34.00536369 82 25 C79.96300095 22.09504468 79.96300095 22.09504468 78 20 C78 19.34 78 18.68 78 18 C77.319375 17.731875 76.63875 17.46375 75.9375 17.1875 C73.80962685 16.32729596 71.70778881 15.40175408 69.625 14.4375 C62.78135888 11.72364231 55.73632284 11.81162067 48.47265625 11.68359375 C47.48373886 11.66281265 46.49482147 11.64203156 45.47593689 11.62062073 C42.33819062 11.55559446 39.20036554 11.49645982 36.0625 11.4375 C33.92642437 11.39427009 31.7903565 11.35065442 29.65429688 11.30664062 C24.43627957 11.19996162 19.21818506 11.09811087 14 11 C14.68302387 62.34324123 15.59249133 113.6708539 17 165 C12.05 165 7.1 165 2 165 C1.98969254 163.78590454 1.97938507 162.57180908 1.96876526 161.32092285 C1.86948502 149.6781631 1.76665709 138.03543893 1.66066074 126.39273834 C1.60631937 120.41222937 1.55307871 114.43171552 1.50268555 108.45117188 C1.29281511 83.6322402 1.01770929 58.82401983 0.32923889 34.01330566 C0.0176122 22.67323801 -0.12512562 11.34472308 0 0 Z " fill="#ecb928" transform="translate(1221,804)"/>
<path d="M0 0 C6.33632358 3.86920184 11.78374604 10.10161487 14.05859375 17.26953125 C15.54176751 25.26643718 14.34744949 32.19080628 10.4375 39.3125 C8 42.1875 8 42.1875 5.4375 44.3125 C4.633125 45.034375 3.82875 45.75625 3 46.5 C-3.49390763 51.09325174 -10.89547308 51.16940301 -18.5625 50.3125 C-25.92912623 48.11883706 -31.40217234 43.73789494 -35.5625 37.3125 C-39.28279571 29.71246734 -39.52655216 22.73259798 -37 14.75 C-34.23597014 7.77227428 -30.09736804 3.40667657 -23.5 -0.125 C-16.27811698 -2.98160099 -7.11508601 -3.30150771 0 0 Z " fill="#ecb928" transform="translate(677.5625,448.6875)"/>
<path d="M0 0 C4.39802985 3.39034421 7.84002428 7.88620273 8.82421875 13.40625 C9.57187627 19.92680407 8.66401243 25.01169323 4.82421875 30.40625 C1.22566588 34.19723885 -2.71751777 37.14262007 -7.98046875 37.70703125 C-15.52210957 37.73581614 -20.0082455 37.13180402 -25.86328125 32.09375 C-30.79989646 26.3566026 -31.73549314 21.76210692 -31.5234375 14.3125 C-30.86041792 8.76995432 -28.3759819 5.2930896 -24.23828125 1.59375 C-16.80333817 -3.71692363 -8.12916888 -4.61697218 0 0 Z M-25.11328125 7.46875 C-28.28583811 11.98724007 -28.72127059 16.00281782 -28.17578125 21.40625 C-26.3265897 26.84504866 -22.79991287 30.17986725 -18.17578125 33.40625 C-13.61845841 34.92535761 -9.47689172 35.3716345 -5.015625 33.5 C0.01046266 30.56889841 3.68952089 27.26737465 5.38671875 21.4921875 C6.33285263 16.38700679 5.41714825 12.98709211 2.82421875 8.40625 C-1.10952 3.59834709 -5.47232582 1.07097277 -11.61328125 -0.03125 C-17.0027618 0.88890522 -21.53941119 3.3147735 -25.11328125 7.46875 Z " fill="#ecb928" transform="translate(982.17578125,291.59375)"/>
<path d="M0 0 C2.578125 -0.061875 5.15625 -0.12375 7.8125 -0.1875 C9.02450073 -0.22846802 9.02450073 -0.22846802 10.26098633 -0.27026367 C15.49207877 -0.33129636 15.49207877 -0.33129636 17.98828125 1.296875 C19.71612307 4.20551991 19.34563489 6.71646856 19 10 C17.5 12.4375 17.5 12.4375 16 14 C16.3609375 14.47050781 16.721875 14.94101562 17.09375 15.42578125 C17.78984375 16.35970703 17.78984375 16.35970703 18.5 17.3125 C18.9640625 17.92738281 19.428125 18.54226563 19.90625 19.17578125 C21 21 21 21 21 24 C18.68359375 24.27734375 18.68359375 24.27734375 16 24 C14.41015625 22.06640625 14.41015625 22.06640625 13.0625 19.5625 C10.7971939 15.64153757 10.7971939 15.64153757 6.625 13.9375 C5.75875 13.958125 4.8925 13.97875 4 14 C4 17.3 4 20.6 4 24 C2.68 24 1.36 24 0 24 C0 16.08 0 8.16 0 0 Z M4 3 C4 5.31 4 7.62 4 10 C5.45792884 10.05399736 6.91642712 10.09279177 8.375 10.125 C9.59316406 10.15980469 9.59316406 10.15980469 10.8359375 10.1953125 C13.21342243 10.21370051 13.21342243 10.21370051 15 8 C14.91428339 5.90708843 14.91428339 5.90708843 14 4 C10.52674819 2.8422494 7.63932552 2.93133348 4 3 Z " fill="#ecb928" transform="translate(961,297)"/>
</svg>
